#!OML:ASF I:\Actors\actors\Patient Classification 1\Patient 1\Session 1\Subject1.ASF
:FULLY-SPECIFIED
:DEGREES
1851
root 0.776512 17.6502 8.68329 20.0214 4.8541 -8.02915
lowerback 14.4644 4.73793 10.1622
upperback -0.843564 8.63097 6.43034
thorax -8.58438 3.84338 -0.544108
lowerneck -8.22943 -11.0781 -0.870781
upperneck 4.95583 -15.0076 4.25653
head 3.47107 -7.28439 0.663478
rclavicle -2.46493e-014 -3.33958e-014
rhumerus 64.0684 -8.50687 -72.1428
rradius 29.2286
rwrist 36.0157
rhand -25.7725 -66.2701
rfingers 7.12502
rthumb 0.765442 1176.25
lclavicle -2.46493e-014 -3.33958e-014
lhumerus -34.4054 -5.48437 88.2105
lradius 111.044
lwrist 76.7108
lhand -32.8696 16.2503
lfingers 7.12502
lthumb -6.08834 46.1428
rfemur -21.967 16.2987 18.8622
rtibia 9.54407
rfoot -12.9708 -25.1459
rtoes 4.05344
lfemur -20.1245 -43.6419 6.198
ltibia -1.50557
lfoot -13.7944 50.0402
ltoes 3.68866
1852
root 0.777094 17.6511 8.68463 20.0517 4.85394 -8.03229
lowerback 14.4646 4.75238 10.1401
upperback -0.832765 8.64524 6.43334
thorax -8.57507 3.85207 -0.531547
lowerneck -8.34512 -11.0684 -0.684817
upperneck 4.97449 -15.0015 4.06212
head 3.46398 -7.28375 0.567596
rclavicle 5.88403e-014 -1.59028e-015
rhumerus 63.9845 -8.89581 -70.9561
rradius 28.1232
rwrist 45.9642
rhand -26.4017 -65.5372
rfingers 7.12502
rthumb 0.157809 1175.52
lclavicle 5.88403e-014 -1.59028e-015
lhumerus -34.4134 -5.47759 88.2338
lradius 111.067
lwrist 76.7351
lhand -32.8588 16.2873
lfingers 7.12502
lthumb -6.07788 46.1802
rfemur -21.9886 16.2878 18.8502
rtibia 9.52635
rfoot -13.0205 -25.1115
rtoes 4.25831
lfemur -20.1455 -43.4816 6.1888
ltibia -1.5116
lfoot -13.5911 49.9165
ltoes 3.5416
1853
root 0.778358 17.651 8.68541 20.0804 4.87104 -8.05606
lowerback 14.4466 4.74667 10.1562
upperback -0.812828 8.63594 6.44537
thorax -8.54305 3.84931 -0.522895
lowerneck -8.45274 -11.046 -0.528939
upperneck 4.93809 -14.9779 3.9318
head 3.44466 -7.27399 0.499779
rclavicle -4.45278e-014 -3.18055e-015
rhumerus 63.9359 -9.23602 -69.6386
rradius 27.0975
rwrist 55.4375
rhand -27.0362 -64.8556
rfingers 7.12502
rthumb -0.45505 1174.83
lclavicle -4.45278e-014 -3.18055e-015
lhumerus -34.4257 -5.44013 88.2383
lradius 111.114
lwrist 76.764
lhand -32.9329 16.3279
lfingers 7.12502
lthumb -6.14942 46.2186
rfemur -22.0171 16.301 18.8569
rtibia 9.51231
rfoot -13.0457 -25.1334
rtoes 4.33154
lfemur -20.1806 -43.3684 6.21807
ltibia -1.51023
lfoot -13.4418 49.8394
ltoes 3.29413
1854
root 0.779405 17.6508 8.68683 20.1008 4.88049 -8.05079
lowerback 14.438 4.70763 10.1238
upperback -0.795498 8.57661 6.45986
thorax -8.52987 3.82392 -0.477744
lowerneck -8.50973 -11.0159 -0.549196
upperneck 4.90637 -14.9391 3.99186
head 3.45096 -7.2526 0.521427
rclavicle -1.59028e-014 2.22639e-014
rhumerus 63.755 -9.33697 -68.2561
rradius 26.4814
rwrist 63.5911
rhand -27.7281 -64.2272
rfingers 7.12502
rthumb -1.12326 1174.2
lclavicle -1.59028e-014 2.22639e-014
lhumerus -34.4806 -5.31529 88.1952
lradius 111.184
lwrist 76.8455
lhand -33.0458 16.3329
lfingers 7.12502
lthumb -6.25844 46.2205
rfemur -22.0261 16.3464 18.8272
rtibia 9.49006
rfoot -13.0698 -25.188
rtoes 4.42998
lfemur -20.2167 -43.4253 6.24721
ltibia -1.50908
lfoot -13.5364 49.8998
ltoes 3.34401
1855
root 0.780228 17.6503 8.68893 20.1079 4.90331 -8.04782
lowerback 14.4309 4.65867 10.1065
upperback -0.781371 8.50679 6.46874
thorax -8.51867 3.79244 -0.444782
lowerneck -8.53409 -10.9905 -0.697884
upperneck 4.93429 -14.9012 4.13552
head 3.49142 -7.22944 0.588401
rclavicle -8.18993e-014 -1.31993e-013
rhumerus 63.3419 -9.10577 -66.2905
rradius 26.3276
rwrist 69.3187
rhand -28.4409 -64.0807
rfingers 7.12502
rthumb -1.81172 1174.05
lclavicle -8.18993e-014 -1.31993e-013
lhumerus -34.5485 -5.19339 88.1285
lradius 111.253
lwrist 76.973
lhand -33.0919 16.4255
lfingers 7.12502
lthumb -6.30294 46.3117
rfemur -22.001 16.3553 18.8153
rtibia 9.44008
rfoot -13.1067 -25.2119
rtoes 4.47478
lfemur -20.2369 -43.517 6.28173
ltibia -1.5217
lfoot -13.5967 49.9643
ltoes 3.49386
1856
root 0.78009 17.6498 8.69122 20.1139 4.93684 -8.06014
lowerback 14.4265 4.61811 10.1178
upperback -0.791896 8.45587 6.46854
thorax -8.52977 3.76677 -0.441357
lowerneck -8.5618 -10.9934 -0.914837
upperneck 5.06789 -14.9017 4.31945
head 3.5808 -7.22196 0.672259
rclavicle -2.8625e-014 -7.79236e-014
rhumerus 62.7884 -8.65406 -63.8359
rradius 26.4254
rwrist 72.6374
rhand -29.046 -64.2611
rfingers 7.12502
rthumb -2.39614 1174.23
lclavicle -2.8625e-014 -7.79236e-014
lhumerus -34.6586 -5.12566 88.0487
lradius 111.305
lwrist 77.0587
lhand -33.0136 16.5107
lfingers 7.12502
lthumb -6.22733 46.3992
rfemur -21.9718 16.3656 18.8274
rtibia 9.38401
rfoot -13.1335 -25.2311
rtoes 4.47694
lfemur -20.2544 -43.4964 6.3127
ltibia -1.52629
lfoot -13.5117 49.9308
ltoes 3.37415
1857
root 0.778181 17.6501 8.69297 20.1122 4.94914 -8.06963
lowerback 14.4314 4.59448 10.119
upperback -0.791537 8.42498 6.46317
thorax -8.53315 3.75156 -0.442339
lowerneck -8.56217 -10.9708 -0.573366
upperneck 4.94395 -14.8819 4.03898
head 3.47943 -7.22102 0.538784
rclavicle -1.43125e-014 -7.79236e-014
rhumerus 62.4081 -8.31769 -62.0811
rradius 26.5134
rwrist 74.7793
rhand -29.5172 -64.3267
rfingers 7.12502
rthumb -2.85124 1174.29
lclavicle -1.43125e-014 -7.79236e-014
lhumerus -34.7423 -5.12384 87.9674
lradius 111.328
lwrist 77.0703
lhand -32.873 16.4804
lfingers 7.12502
lthumb -6.09157 46.3728
rfemur -21.9575 16.3899 18.8422
rtibia 9.36781
rfoot -13.1197 -25.2429
rtoes 4.46666
lfemur -20.2442 -43.4196 6.32257
ltibia -1.54712
lfoot -13.4661 49.8652
ltoes 3.26865
